{"title":"The Omen [2006] 720p MP4 Dellefs0","uid":7646375,"size":906497643,"categoryP":"video","categoryS":"hd___movies","magnet":"?xt=urn:btih:566bf1dd2ba842f21db7190f54354678815417d8&amp;dn=The+Omen+%5B2006%5D+720p+MP4+Dellefs0&amp;tr=udp%3A%2F%2Ftracker.openbittorrent.com%3A80&amp;tr=udp%3A%2F%2Fopen.demonii.com%3A1337&amp;tr=udp%3A%2F%2Ftracker.coppersurfer.tk%3A6969&amp;tr=udp%3A%2F%2Fexodus.desync.com%3A6969","seeders":0,"leechers":1,"uploader":"FatFreddy853","files":1,"time":1347915776,"description":" &lt;a href=&quot;http://www.imdb.com/title/tt0466909/&quot; rel=&quot;nofollow&quot; target=&quot;_NEW&quot;&gt;http://www.imdb.com/title/tt0466909/&lt;/a&gt;\n\n\n\n\n\n\nFormat : MPEG-4\nFormat profile : Base Media / Version 2\nCodec ID : mp42\nFile size : 865 MiB\nDuration : 1h 49mn\nOverall bit rate mode : Variable\nOverall bit rate : 1 100 Kbps\nEncoded date : UTC 2012-09-17 06:35:16\nTagged date : UTC 2012-09-17 07:21:51\nWriting application : HandBrake 0.9.8 2012071800\nVideo\nID : 1\nFormat : AVC\nFormat/Info : Advanced Video Codec\nFormat profile : &lt;a class=&quot;__cf_email__&quot; href=&quot;/cdn-cgi/l/email-protection&quot; data-cfemail=&quot;86cbe7efe8c6cab5a8b7&quot;&gt;[email&amp;#160;protected]&lt;/a&gt;&lt;script cf-hash='f9e31' type=&quot;text/javascript&quot;&gt;\n/* &lt;![CDATA[ */!function(){try{var t=&quot;currentScript&quot;in document?document.currentScript:function(){for(var t=document.getElementsByTagName(&quot;script&quot;),e=t.length;e--;)if(t[e].getAttribute(&quot;cf-hash&quot;))return t[e]}();if(t&amp;&amp;t.previousSibling){var e,r,n,i,c=t.previousSibling,a=c.getAttribute(&quot;data-cfemail&quot;);if(a){for(e=&quot;&quot;,r=parseInt(a.substr(0,2),16),n=2;a.length-n;n+=2)i=parseInt(a.substr(n,2),16)^r,e+=String.fromCharCode(i);e=document.createTextNode(e),c.parentNode.replaceChild(e,c)}}}catch(u){}}();/* ]]&gt; */&lt;/script&gt;\nFormat settings, CABAC : Yes\nFormat settings, ReFrames : 4 frames\nCodec ID : avc1\nCodec ID/Info : Advanced Video Coding\nDuration : 1h 49mn\nBit rate mode : Variable\nBit rate : 931 Kbps\nWidth : 1 280 pixels\nHeight : 688 pixels\nDisplay aspect ratio : 1.85:1\nFrame rate mode : Variable\nFrame rate : 23.976 fps\nMinimum frame rate : 23.810 fps\nMaximum frame rate : 1 000.000 fps\nColor space : YUV\nChroma subsampling : 4:2:0\nBit depth : 8 bits\nScan type : Progressive\nBits/(Pixel*Frame) : 0.044\nStream size : 731 MiB (85%)\nWriting library : x264 core 120\nEncoding settings : cabac=1 / ref=1 / deblock=1:0:0 / analyse=0x1:0x111 / me=hex / subme=2 / psy=1 / psy_rd=1.00:0.00 / mixed_ref=0 / me_range=16 / chroma_me=1 / trellis=0 / 8x8dct=0 / cqm=0 / deadzone=21,11 / fast_pskip=1 / chroma_qp_offset=0 / threads=6 / sliced_threads=0 / nr=0 / decimate=1 / interlaced=0 / bluray_compat=0 / constrained_intra=0 / bframes=3 / b_pyramid=2 / b_adapt=1 / b_bias=0 / direct=1 / weightb=1 / open_gop=0 / weightp=1 / keyint=240 / keyint_min=24 / scenecut=40 / intra_refresh=0 / rc_lookahead=10 / rc=crf / mbtree=1 / crf=24.0 / qcomp=0.60 / qpmin=3 / qpmax=69 / qpstep=4 / ip_ratio=1.40 / aq=1:1.00\nEncoded date : UTC 2012-09-17 06:35:16\nTagged date : UTC 2012-09-17 07:21:51\nColor primaries : BT.709-5, BT.1361, IEC 61966-2-4, SMPTE RP177\nTransfer characteristics : BT.709-5, BT.1361\nMatrix coefficients : BT.709-5, BT.1361, IEC 61966-2-4 709, SMPTE RP177\nAudio\nID : 2\nFormat : AAC\nFormat/Info : Advanced Audio Codec\nFormat profile : LC\nCodec ID : 40\nDuration : 1h 49mn\nBit rate mode : Variable\nBit rate : 165 Kbps\nMaximum bit rate : 259 Kbps\nChannel(s) : 2 channels\nChannel positions : Front: L R\nSampling rate : 48.0 KHz\nCompression mode : Lossy\nStream size : 129 MiB (15%)\nLanguage : English\n\n\n\n\n\n\nIf you have any requests please leave them at my Suprbay forum, from now on i \n\nwill disregard any requests left on here\n\n\n\n &lt;a href=&quot; https://forum.suprbay.org/showthread.php?tid=130110&quot; rel=&quot;nofollow&quot; target=&quot;_NEW&quot;&gt; https://forum.suprbay.org/showthread.php?tid=130110&lt;/a&gt;\n\n\n\n\n\n\n                                ENCODED BY THE HAMBURGLER\n\n\nPlease Comment On Quality And Seed\n\nSharing Is Caring\n","torrent":{"xt":"urn:btih:566bf1dd2ba842f21db7190f54354678815417d8","amp;dn":"The+Omen+%5B2006%5D+720p+MP4+Dellefs0","amp;tr":["udp%3A%2F%2Ftracker.openbittorrent.com%3A80","udp%3A%2F%2Fopen.demonii.com%3A1337","udp%3A%2F%2Ftracker.coppersurfer.tk%3A6969","udp%3A%2F%2Fexodus.desync.com%3A6969"],"infoHash":"566bf1dd2ba842f21db7190f54354678815417d8","infoHashBuffer":{"type":"Buffer","data":[86,107,241,221,43,168,66,242,29,183,25,15,84,53,70,120,129,84,23,216]},"announce":[],"urlList":[]}}